<svg height='300px' width='300px'  fill="#000000" xmlns="http://www.w3.org/2000/svg" xmlns:xlink="http://www.w3.org/1999/xlink" version="1.1" x="0px" y="0px" viewBox="0 0 100 100" style="enable-background:new 0 0 100 100;" xml:space="preserve"><g><path d="M92.2,45.9C86.9,38.7,79.3,33.5,70.8,31c-3.7-7-11.3-11.2-19.3-10.3l-11.3,1.2c-0.7,0.1-1.3,0.5-1.6,1.2   c-0.3,0.6-0.2,1.4,0.2,2c1.9,2.7,2.4,6.2,1.3,9.3c-3.1,1.7-6,3.8-8.7,6.4l-3,2.9c-4.8-7-12.8-11.2-21.4-11.2c-1.1,0-2,0.9-2,2   c0,7.8,3.5,15.1,9.4,20C8.5,59.3,5,66.6,5,74.4c0,1.1,0.9,2,2,2c8.6,0,16.6-4.2,21.4-11.2l3,2.9C39,75.4,49,79.4,59.5,79.4   c12.8,0,25-6.2,32.6-16.5C95.9,57.8,95.9,51,92.2,45.9z M51.9,24.7c5.1-0.5,10,1.4,13.2,5.1c-1.9-0.3-3.7-0.4-5.6-0.4   c-5.2,0-10.2,1-14.9,2.8c0.2-2.3-0.1-4.5-1-6.7L51.9,24.7z M59.5,75.4c-9.5,0-18.5-3.6-25.4-10.2l-4.8-4.6C29,60.2,28.5,60,28,60   c-0.1,0-0.2,0-0.3,0c-0.6,0.1-1.2,0.5-1.5,1c-3.5,6.4-10,10.6-17.2,11.2c0.6-6.6,4.2-12.5,9.7-16.2c0.6-0.4,0.9-1,0.9-1.7   c0-0.7-0.3-1.3-0.9-1.7c-5.6-3.7-9.1-9.7-9.7-16.2c7.2,0.7,13.6,4.9,17.2,11.2c0.3,0.5,0.8,0.9,1.5,1c0.6,0.1,1.2-0.1,1.7-0.5   l4.8-4.6C41,37,50,33.4,59.5,33.4c3.4,0,6.7,0.5,9.9,1.4c-2.7,2.5-4.8,5.4-6.2,8.7l-2.5,0.4c-6.3,1-12.2,3.8-17.1,8   c-0.5,0.4-0.7,0.9-0.7,1.5c0,0.6,0.3,1.1,0.7,1.5c4.9,4.2,10.8,6.9,17.1,8l1.6,0.3c1.4,4.1,3.8,7.8,7,10.8   C66.2,74.9,62.9,75.4,59.5,75.4z M61.3,58.9c-4.7-0.8-9.2-2.7-13.1-5.5c3.9-2.8,8.4-4.8,13.2-5.5l0.3-0.1c-0.5,2.1-0.8,4.3-0.8,6.6   C60.9,55.9,61.1,57.4,61.3,58.9z M89,60.6c-3.9,5.3-9.2,9.4-15.2,11.9c-3.7-2.9-6.4-6.8-7.8-11.1c0-0.3-0.1-0.7-0.3-1   c-0.5-1.9-0.8-3.9-0.8-6c0-7.2,3.2-13.7,8.9-18.1c6,2.5,11.2,6.6,15.2,11.9c1.4,1.8,2,4,2,6.2C91,56.6,90.3,58.7,89,60.6z"></path><path d="M76,44.4c-3.3,0-6,2.7-6,6s2.7,6,6,6s6-2.7,6-6S79.3,44.4,76,44.4z M76,52.4c-1.1,0-2-0.9-2-2c0-1.1,0.9-2,2-2s2,0.9,2,2   C78,51.5,77.1,52.4,76,52.4z"></path></g></svg>